<svg xmlns="http://www.w3.org/2000/svg" width="48.742" height="29.315" viewBox="0 0 48.742 29.315">
    <g id="Group_12" data-name="Group 12" transform="translate(-521.898 -797.084)">
        <path id="Path_107" data-name="Path 107"
            d="M678.057,893.883c3.464,3.667,12.614,4.958,18.629,7.8s4.734,4.633,4.734,4.633l-24.257-9.669v-4.767Z"
            transform="translate(-130.894 -79.916)" />
        <path id="Path_108" data-name="Path 108"
            d="M545.375,893.883c-3.464,3.667-12.613,4.958-18.629,7.8s-4.734,4.633-4.734,4.633l24.257-9.669v-4.767Z"
            transform="translate(0 -79.916)" />
        <path id="Path_109" data-name="Path 109" d="M535.078,972.98l3.868-1.664h36.568l3.413,1.31Z"
            transform="translate(-11.112 -146.884)" fill="#ffcb00" />
        <path id="Path_110" data-name="Path 110"
            d="M639.968,797.089a7.049,7.049,0,0,0-7.24,5.965.93.93,0,0,0,.916,1.077h.109a.98.98,0,0,0,.962-.832,5.048,5.048,0,1,1,4.979,5.88h-.029a.864.864,0,0,0-.865.864v1.077a7.046,7.046,0,1,0,1.168-14.03Z"
            transform="translate(-93.425)" />
    </g>
</svg>
