<svg xmlns="http://www.w3.org/2000/svg" width="16.531" height="18.893" viewBox="0 0 16.531 18.893">
    <path id="Path_49" data-name="Path 49"
        d="M8.266,9.446A2.362,2.362,0,1,1,5.9,11.808,2.369,2.369,0,0,1,8.266,9.446Zm0-7.085A2.369,2.369,0,0,0,5.9,4.723h4.723A2.369,2.369,0,0,0,8.266,2.362Zm5.9,16.531H2.362A2.369,2.369,0,0,1,0,16.531V7.085A2.369,2.369,0,0,1,2.362,4.723H3.542a4.723,4.723,0,1,1,9.446,0H14.17a2.369,2.369,0,0,1,2.362,2.362v9.446A2.369,2.369,0,0,1,14.17,18.893Z"
        fill="#fff" fill-rule="evenodd" />
</svg>
