<svg xmlns="http://www.w3.org/2000/svg" width="21.576" height="22.712" viewBox="0 0 21.576 22.712">
    <path id="Path_104" data-name="Path 104"
        d="M270.646,14.2a2.839,2.839,0,1,0-2.839-2.839A2.847,2.847,0,0,0,270.646,14.2Zm-5.82-9.085a8.005,8.005,0,0,1,3.407-1.845L269.369,0h2.839l1.136,3.265A9.913,9.913,0,0,1,276.75,5.11l3.407-.71,1.42,2.555-2.271,2.555a8.093,8.093,0,0,1,.142,1.845c0,.568-.142,1.278-.142,1.845l2.271,2.555-1.42,2.555-3.407-.71a8.006,8.006,0,0,1-3.407,1.845l-1.136,3.265h-2.839l-1.136-3.265a9.913,9.913,0,0,1-3.407-1.845l-3.407.71L260,15.756l2.271-2.555a8.1,8.1,0,0,1-.142-1.845c0-.568.142-1.278.142-1.845L260,6.956,261.42,4.4Z"
        transform="translate(-260)" fill="#cbcbcb" fill-rule="evenodd" />
</svg>
