<svg xmlns="http://www.w3.org/2000/svg" width="48.728" height="36.817" viewBox="0 0 48.728 36.817">
    <g id="Group_8" data-name="Group 8" transform="translate(-345.51 -577.242)">
        <path id="Path_103" data-name="Path 103"
            d="M452.52,580.25c-.291.177-.57.356-.57.356a18.417,18.417,0,0,0-3.886,3.354V613.5A29.062,29.062,0,0,1,461,606.795a30.3,30.3,0,0,1,4.857-.705,2.091,2.091,0,0,0,2.082-1.956V579.22a2.141,2.141,0,0,0-2.407-1.956C457.533,577.765,454.07,579.3,452.52,580.25Z"
            transform="translate(-77.46 -0.013)" fill="#ffcb00" />
        <path id="Path_104" data-name="Path 104"
            d="M472.593,603.435v21.039a2.092,2.092,0,0,1-2.082,1.956,30.27,30.27,0,0,0-4.857.705,29.065,29.065,0,0,0-12.938,6.708,36.344,36.344,0,0,1,18.047-1.14,3.879,3.879,0,0,0,4.449-4.007V607.3A4.047,4.047,0,0,0,472.593,603.435Z"
            transform="translate(-80.973 -19.784)" />
        <path id="Path_105" data-name="Path 105"
            d="M376.281,580.233c.29.177.57.356.57.356a18.392,18.392,0,0,1,3.886,3.354v29.543a29.064,29.064,0,0,0-12.938-6.708,30.3,30.3,0,0,0-4.857-.705,2.092,2.092,0,0,1-2.083-1.956V579.2a2.141,2.141,0,0,1,2.407-1.956C371.268,577.748,374.732,579.287,376.281,580.233Z"
            transform="translate(-11.593)" fill="#ffcb00" />
        <path id="Path_106" data-name="Path 106"
            d="M348.128,603.419v21.039a2.091,2.091,0,0,0,2.082,1.956,30.293,30.293,0,0,1,4.857.705,29.064,29.064,0,0,1,12.939,6.708,36.348,36.348,0,0,0-18.047-1.139,3.879,3.879,0,0,1-4.449-4.007V607.289A4.046,4.046,0,0,1,348.128,603.419Z"
            transform="translate(0 -19.772)" />
    </g>
</svg>
