<svg xmlns="http://www.w3.org/2000/svg" width="22" height="22" viewBox="0 0 22 22">
    <path id="Path_152" data-name="Path 152"
        d="M13.75,9.625A1.3,1.3,0,0,0,15.125,11,1.3,1.3,0,0,0,16.5,9.625,1.3,1.3,0,0,0,15.125,8.25,1.3,1.3,0,0,0,13.75,9.625Zm-8.25,0A1.3,1.3,0,0,0,6.875,11,1.3,1.3,0,0,0,8.25,9.625,1.3,1.3,0,0,0,6.875,8.25,1.3,1.3,0,0,0,5.5,9.625ZM20.625,6.738,22,20.487a1.561,1.561,0,0,1-.413,1.1,1.071,1.071,0,0,1-.962.413H1.375a1.071,1.071,0,0,1-.962-.413A1.561,1.561,0,0,1,0,20.487L1.375,6.737A1.462,1.462,0,0,1,2.75,5.5H5.5a5.5,5.5,0,0,1,11,0h2.75A1.462,1.462,0,0,1,20.625,6.738ZM13.75,5.5H8.25a2.75,2.75,0,0,1,5.5,0Z"
        fill="#cbcbcb" fill-rule="evenodd" />
</svg>
