<svg xmlns="http://www.w3.org/2000/svg" width="41.104" height="34.735" viewBox="0 0 41.104 34.735">
    <g transform="translate(-315.731 -148.284)">
        <path
            d="M354.609,166.926a3.1,3.1,0,0,0,1.034-1.952c.79-5.5-3.98-10.945-8.425-13.4a23.586,23.586,0,0,0-17.307-2.666c-3.742.876-6.389,3.02-8.784,5.948-1.936,2.368-4.137,5.5-4.169,8.709-.011,1,.215,2.987.919,3.685a1.934,1.934,0,0,0,.217.162c-1.3.841-2.961,2.458-2.15,3.9a1.986,1.986,0,0,0,1.909.757,2.986,2.986,0,0,0,.867-.262,5.837,5.837,0,0,0,.637,3.687,2.741,2.741,0,0,0-2.324,1.479c-.463,1.217-.1,4.033,1.009,4.891a3.861,3.861,0,0,0,2,.469c1.609.2,3.182.419,4.807.463,3.7.1,7.409.2,11.114.216q5.6.018,11.2-.227c2.161-.095,5.271.025,7.179-1.284,1.334-.916,1.525-2.936,1.108-4.4a2.789,2.789,0,0,0-2.613-2.086,3.193,3.193,0,0,0,.958-3.552,1.1,1.1,0,0,0,.5.163,3,3,0,0,0,2.1-1.121C357.631,168.968,356,167.683,354.609,166.926Zm-36.051-5.891c1.379-3.92,4.711-8.189,8.466-10.064a20.9,20.9,0,0,1,11.819-1.535c5.283.851,11.1,4.012,13.927,8.655a12.666,12.666,0,0,1,1.862,5.638c.182,3.194-3.122,3.514-5.611,3.683-4.092.278-8.173.243-12.27.182-3.788-.034-7.578-.036-11.367-.1-1.859-.034-5.731.343-6.956-1.334C317.472,164.847,318.1,162.34,318.559,161.035Zm35.93,16.337a3.375,3.375,0,0,1-.65,3.274c-1.082.909-3.4.965-4.73,1.055-4.368.294-8.77.334-13.146.319-4.04-.014-8.113-.025-12.148-.252-1.716-.1-5.02.068-5.681-1.779-.773-2.162.413-3.445,2.472-3.612a10.371,10.371,0,0,0,2.452.177,149.179,149.179,0,0,0,14.968.194c2.562-.167,5.1-.4,7.673-.415,1.929-.01,3.8.278,5.626-.424C352.589,175.93,353.924,175.841,354.489,177.372Zm-9.241-2.031c-3.144.036-6.261.423-9.4.507-2.945.079-5.891-.044-8.834-.151l-4.343-.154c-2.5-.088-3.139-1.681-2.936-3.9.9.146.825.85,1.355,1.486,1.525,1.834,3.879.478,5.307-.644,1-.785,1.567-1.267,2.85-.64a15.021,15.021,0,0,0,1.326.824c1.127.418,1.838-.085,2.9-.383,2.667-.749,2.587-.268,4.574.7a6.434,6.434,0,0,0,1.574.557,5.4,5.4,0,0,0,3.8-.633c1.505-.835,1.855-1.665,4.036-.955.4.13.737.441,1.145.567a2.318,2.318,0,0,0,2.352-.408c.61-.473.929-.915,1.618-.968C355.1,175.721,347.575,175.314,345.248,175.341Zm8.41-5.024c-.617-.138-.977-.636-1.678-.47-.509.12-.766.667-1.157.955a2.324,2.324,0,0,1-2.346.567c-.4-.11-.771-.444-1.178-.578-1.819-.6-2.847.409-4.384,1.258-1.95,1.078-3.71.368-5.489-.612a4.131,4.131,0,0,0-2.408-.711c-1.165.091-2.039.694-3.244.759-1.587.086-1.6-.607-2.926-.971s-2.177.53-3.157,1.264c-1.076.8-1.125.906-2.625.628-1.938-.359-1.038-.249-1.9-1.26a1.833,1.833,0,0,0-.922-.622c-.691-.161-1.249.412-1.9.431-2.894.086-.337-2.384.85-3.02a17.947,17.947,0,0,0,3.647.46c4.608.342,9.294.156,13.913.2,4.229.063,8.452.1,12.674-.211a12.475,12.475,0,0,0,4.222-.831c.473.229,1.842.9,1.994,1.415C355.993,170.161,354.437,170.491,353.659,170.317Z"
            fill="#333" />
        <path
            d="M325.063,170.844c.639-.027.643-1.025,0-1-1.115.046-3.188.228-3-1.4a5.855,5.855,0,0,1,1.675-3.026c.442-.465-.262-1.172-.706-.706-1.009,1.063-2.406,3.115-2.06,4.695C321.319,170.965,323.9,170.893,325.063,170.844Z"
            transform="translate(-1.491 -4.675)" fill="#333" />
        <path d="M329.8,172.992a.5.5,0,0,0,0-1A.5.5,0,0,0,329.8,172.992Z" transform="translate(-3.904 -6.811)"
            fill="#333" />
        <path
            d="M332.831,154.739a.51.51,0,0,0,.5-.5c.022-.182.045-.364.067-.547a.5.5,0,0,0-.5-.5.51.51,0,0,0-.5.5c-.022.182-.045.364-.067.547A.5.5,0,0,0,332.831,154.739Z"
            transform="translate(-4.768 -1.411)" fill="#333" />
        <path
            d="M340.311,153.461a2.282,2.282,0,0,1,.5-.3c.582-.27.076-1.131-.5-.862a3.237,3.237,0,0,0-.7.455C339.109,153.163,339.818,153.865,340.311,153.461Z"
            transform="translate(-6.81 -1.139)" fill="#333" />
        <path
            d="M347.772,153.129c.577.274,1.084-.586.5-.862a5.224,5.224,0,0,1-.777-.453c-.526-.37-1.026.495-.5.862A5.323,5.323,0,0,0,347.772,153.129Z"
            transform="translate(-8.918 -0.988)" fill="#333" />
        <path
            d="M352.859,154.956a.767.767,0,0,1,.409-.217c.625-.144.361-1.106-.266-.963a1.752,1.752,0,0,0-.849.474C351.695,154.7,352.4,155.407,352.859,154.956Z"
            transform="translate(-10.42 -1.573)" fill="#333" />
        <path
            d="M344.2,158.9c.4.5,1.107-.21.706-.706a2.731,2.731,0,0,0-.293-.309c-.475-.43-1.182.273-.706.706A2.734,2.734,0,0,1,344.2,158.9Z"
            transform="translate(-8.048 -2.721)" fill="#333" />
        <path
            d="M335.813,158.653a1.532,1.532,0,0,1,.449-.347c.569-.3.066-1.16-.5-.862a2.321,2.321,0,0,0-.651.5C334.677,158.422,335.381,159.13,335.813,158.653Z"
            transform="translate(-5.527 -2.614)" fill="#333" />
        <path
            d="M350.435,158.92c.57.293,1.076-.568.5-.862a1.165,1.165,0,0,1-.489-.43c-.344-.54-1.207-.04-.862.5A2.168,2.168,0,0,0,350.435,158.92Z"
            transform="translate(-9.703 -2.618)" fill="#333" />
        <path
            d="M328.758,158.376a.391.391,0,0,1,.151-.292c.524-.364.026-1.229-.5-.862a1.368,1.368,0,0,0-.609.888C327.681,158.739,328.642,159.008,328.758,158.376Z"
            transform="translate(-3.463 -2.542)" fill="#333" />
        <path d="M356.783,157.559c.49.408,1.2-.294.706-.706l-.445-.371c-.49-.408-1.2.294-.706.706Z"
            transform="translate(-11.617 -2.32)" fill="#333" />
    </g>
</svg>
