<svg xmlns="http://www.w3.org/2000/svg" width="40.919" height="35.478" viewBox="0 0 40.919 35.478">
    <g id="Group_7" data-name="Group 7" transform="translate(-698.771 -333.68)">
        <path id="Path_100" data-name="Path 100"
            d="M728.115,387.337a.419.419,0,0,0-.6-.036c-4.493,4.093-12.375,10.638-12.09,11.869.217.939.7,1.105.7,1.105h0a2.67,2.67,0,0,0,1.035.6c1.691.44,7.825-7.336,11.79-12.022a.424.424,0,0,0,0-.547Q728.516,387.8,728.115,387.337Z"
            transform="translate(-9.871 -31.736)" />
        <path id="Path_101" data-name="Path 101"
            d="M769.415,336.6l-.009-.009a1.239,1.239,0,0,0-1.739.014l-6.989,6.988a1.077,1.077,0,0,1-1.586-.087,1.123,1.123,0,0,1,.1-1.5L765.2,336a.643.643,0,0,0-.456-1.091,14.019,14.019,0,0,0-8.042,2.927c-.833.66-3.944,3.127-3.946,7.124a6.026,6.026,0,0,0,.173,1.612c.37,1.7,1.161,2.488.948,3.754a2.8,2.8,0,0,1-.255.78,8.112,8.112,0,0,1-.987,1.651,9.682,9.682,0,0,1-.75.839.316.316,0,0,0,.011.455q.43.394.9.815a.322.322,0,0,0,.449-.019c.284-.3.536-.559.75-.754a6.194,6.194,0,0,1,2.384-1.46c1.238-.4,2.485.162,3.591.377a8.137,8.137,0,0,0,5.295-1.056,10.314,10.314,0,0,0,2.9-2.4,14.339,14.339,0,0,0,2.973-7.715.812.812,0,0,0-1.372-.633l-5.735,5.735a1.077,1.077,0,0,1-1.586-.087,1.123,1.123,0,0,1,.1-1.5l6.869-6.869a1.331,1.331,0,0,0,.007-1.878Z"
            transform="translate(-31.45 -0.73)" />
        <path id="Path_102" data-name="Path 102"
            d="M713.246,336.7c-3.307-2.633-9.569-4.537-12.775-1.368-3.361,3.323-1.116,10,1.385,13.024a10.66,10.66,0,0,0,2.937,2.435,8.516,8.516,0,0,0,5.327,1.113c1.356-.223,2.778-.9,4.087-.46a6.381,6.381,0,0,1,2.409,1.489c2.867,2.623,12.65,15.885,14.833,15.345a2.6,2.6,0,0,0,1.035-.592h0s.483-.161.689-1.1c.349-1.6-13.225-12.372-15.21-14.976a6.512,6.512,0,0,1-1.008-1.668c-.9-2.31.234-4.072.322-6.044C717.445,340.2,713.9,337.227,713.246,336.7Z"
            fill="#ffcb00" />
    </g>
</svg>
