<svg xmlns="http://www.w3.org/2000/svg" width="75.295" height="114.922" viewBox="0 0 75.295 114.922"><g transform="translate(-142.353 -110.5)"><rect width="74.295" height="113.922" rx="11.478" transform="translate(142.853 111)" stroke="#000" stroke-miterlimit="10" stroke-width="1"/><rect width="56.999" height="83.239" transform="translate(151.5 123.788)" fill="#fff" stroke="#000" stroke-miterlimit="10" stroke-width="1"/><circle cx="4.008" cy="4.008" r="4.008" transform="translate(175.992 212.5)" fill="#fff" stroke="#000" stroke-miterlimit="10" stroke-width="1"/><path d="M676.045,155.01H642.2a3.571,3.571,0,0,0-1.547.362l18.389,18.389,4.122-3.962h0l14.428-14.427A3.568,3.568,0,0,0,676.045,155.01Z" transform="translate(-479.122 -6.908)" fill="#ffcb00"/><path d="M688.077,157.8,674.5,171.374l13.577,13.576a3.566,3.566,0,0,0,.361-1.546V159.342A3.576,3.576,0,0,0,688.077,157.8Z" transform="translate(-487.905 -7.631)" fill="#ffcb00"/><path d="M638.228,157.8a3.569,3.569,0,0,0-.361,1.546V183.4a3.569,3.569,0,0,0,.361,1.546l13.577-13.577Z" transform="translate(-478.399 -7.631)" fill="#ffcb00"/><path d="M664.015,178.429l-4.122,3.962a1.2,1.2,0,0,1-1.7,0l-3.962-3.962-13.577,13.576a3.568,3.568,0,0,0,1.547.362h33.846a3.57,3.57,0,0,0,1.547-.361Z" transform="translate(-479.122 -12.986)" fill="#ffcb00"/></g></svg>
