<svg xmlns="http://www.w3.org/2000/svg" width="34.091" height="38.176" viewBox="0 0 34.091 38.176"><g transform="translate(-140 -479)"><path d="M442.812,149.112c-.646-.349-2.316-1.148-3.088-.806a1.007,1.007,0,0,0-.384.322c-.358-.742-1.317-.649-2.212-.728l-.423-.035c.226-.744.446-1.74-.44-2.053a11.06,11.06,0,0,0-2.157-.215,19.259,19.259,0,0,0-2.259-.4.455.455,0,0,0-.4.228,3.515,3.515,0,0,0-.252,1.207,6.126,6.126,0,0,0-1.234-.142c-.182-.892-.294-2.887-1.463-2.885a13.764,13.764,0,0,0-4.57.61.476.476,0,0,0-.337.443,8.206,8.206,0,0,0,.111,1.214,14.078,14.078,0,0,0-1.864.426c-.213.042-.537.063-.855.112a1.255,1.255,0,0,0-.191-1.062,1.049,1.049,0,0,0-.671-.178c-.534-.037-1.074-.041-1.609-.062-.659-.025-1.7-.291-2.2.289-.532.626-.385,2.011-.362,2.785-.081.018-.158.038-.226.059a.452.452,0,0,0-.321.321,25.419,25.419,0,0,0-.188,3.166c-.2-.8-.4-1.6-.607-2.4-.411-1.545-1.106-1.3-2.592-1.047-1.442.243-2.622.142-2.428,1.772a35.334,35.334,0,0,0,1.423,6.373c-.234.008-.468.012-.7.02-.012,0-.021.007-.033.008a.444.444,0,0,0-.062.015.458.458,0,0,0-.109.032c-.01,0-.019,0-.028.009-.845.442-.713.946-.724,1.832a51.48,51.48,0,0,0,.421,5.433,93.618,93.618,0,0,0,1.537,10.468c.436,2.059.646,6.249,3.015,7.036a21.072,21.072,0,0,0,4.712.427c1.913.123,3.826.075,5.739.01,3.15-.108,6.331.171,9.471-.029,2.052-.13,4.012-.464,4.989-2.455,1.419-2.891,1.78-6.717,2.211-9.865.541-3.948.805-7.927,1.066-11.9a.467.467,0,0,0-.459-.459l-.463-.027c.576-1.835,1.105-3.685,1.562-5.554C443.4,150.45,443.809,149.65,442.812,149.112Zm-4.268.074a6.148,6.148,0,0,1,0,2.335c0,.01-.005.024-.007.033a.467.467,0,0,0-.007.2c0,.016,0,.039,0,.053l-.033,4.991c-.936-.051-1.873-.1-2.81-.14q-.041-2.265.029-4.529c.024-.782,0-1.6.1-2.374.143-1.086.224-1.037,1.31-.938C437.7,148.87,438.327,148.873,438.544,149.185Zm-3.781,7.429-.452-.022c.159-.566.3-1.139.429-1.713C434.744,155.459,434.753,156.037,434.764,156.614Zm-.193-10.044c.361.037,1.132-.054,1.307.247.166.286-.04.746-.132,1.037,0,.011,0,.019,0,.029-.476.1-.732.432-.808,1.3-.049.549-.082,1.1-.111,1.652-.006.014-.016.022-.021.036-.625,1.854-.882,3.806-1.432,5.681q-.971-.04-1.944-.074a56.889,56.889,0,0,0,.974-8.349,1.373,1.373,0,0,0-.339-1.042.342.342,0,0,0,.013-.039c.034-.261.028-.612.089-.9C432.954,146.216,433.788,146.489,434.571,146.57Zm-3.384,3.633a51.71,51.71,0,0,1-.665,6.145.424.424,0,0,0,0,.1c-.95-.031-1.9-.055-2.85-.078q.4-1.965.8-3.93a15.253,15.253,0,0,0,.724-3.581.916.916,0,0,0-.444-.768h0c.033-.824,1.743-.826,2.271-.42C431.666,148.16,431.233,149.536,431.187,150.2Zm-6.485,1.666c.1-.617.18-1.235.261-1.854.039-.3,0-1.063.175-1.3.137-.18.087-.023.44-.1a5.9,5.9,0,0,1,1.878.183c1.03.34.57,1.276.394,2.136l-1.095,5.345a.506.506,0,0,0,0,.064c-.973-.02-1.946-.033-2.92-.045C424.168,154.833,424.469,153.357,424.7,151.869Zm3.775-7.348a8.022,8.022,0,0,1,.55,1.946c-.216-.009-.421-.021-.61-.045a.457.457,0,0,0-.443.337,8.762,8.762,0,0,0-.125,1.09c-.485-.038-1.009-.005-1.4-.045a7.258,7.258,0,0,0-1.362-.106,3.388,3.388,0,0,0-.39-1.374.47.47,0,0,0,0-.125,7.12,7.12,0,0,1-.156-1.2,9.889,9.889,0,0,1,2.445-.339C427.463,144.636,427.982,144.529,428.477,144.521Zm-4.229,3.752a.4.4,0,0,0,.045.114,2.409,2.409,0,0,0-.1.32c-.552,2.464-.715,5.027-1.283,7.5a.443.443,0,0,0,0,.077c-.341,0-.683-.007-1.024-.009-.194-2.231-.477-4.448-.831-6.659a7.023,7.023,0,0,1-.293-1.936c.165-.4.518-.338.991-.431C423.182,146.972,423.958,146.61,424.248,148.273Zm-7.3-1.873c.062-.5.186-.4.591-.409.323-.011.654.026.978.037.5.019,1.032.09,1.531.064,0,.023,0,.047,0,.07a5.584,5.584,0,0,0-.077.816v0a4,4,0,0,0,.091,2.176c.388,2.365.706,4.736.914,7.124q-.867,0-1.735,0c.068-1.315.119-2.631.134-3.948.012-1.007.31-2.561-.088-3.475-.308-.708-1.43-.868-2.4-.805A11.959,11.959,0,0,1,416.949,146.4Zm-.934,8.121c.114-1.068.114-2.135.131-3.208.017-1.056-.2-2.667,1.344-2.229.843.239.843.489.965,1.352a12.967,12.967,0,0,1,0,1.9c-.016,1.317-.066,2.633-.134,3.948-.655,0-1.31.018-1.965.027q-.2-.8-.393-1.608A.492.492,0,0,0,416.015,154.521Zm-5.119-2.2a9.4,9.4,0,0,1-.313-1.788c.029-1.209.671-1.329,1.686-1.362,1.428-.047,1.49.514,1.763,1.613q.225.907.451,1.814.463,1.86.926,3.722-1.719.03-3.439.082A38.4,38.4,0,0,1,410.9,152.321Zm30.134,12.771c-.407,4.264-.669,9.5-2.5,13.453-1.552,3.351-6.88,2.167-9.906,2.164-3.9,0-7.757.333-11.649-.115-1.241-.143-2.525-.009-3.378-1.244a10.691,10.691,0,0,1-.852-3.019c-.49-1.944-.878-3.914-1.2-5.892-.359-2.21-.629-4.433-.843-6.661-.083-.863-.992-5.727-.213-6.414q12.707-.455,25.4.207,1.746.088,3.492.191c1.573.093,1.949-.171,2.108,1.4A32.006,32.006,0,0,1,441.03,165.092ZM441.6,153.8c-.292,1.049-.607,2.089-.935,3.128q-.623-.038-1.247-.073.013-2.051.026-4.1c0-.427.029-.885.054-1.346a4.814,4.814,0,0,1,.526-2.011c.327-.318,1.011.019,1.36.188.627.3.972.5.969,1.31A12.578,12.578,0,0,1,441.6,153.8Z" transform="translate(-269.361 335.392)" fill="#333"/><path d="M429.9,171.059c-2.328.087-4.742.026-6.676,1.53a7.159,7.159,0,0,0-2.72,5.507c-.007,5.819,7.667,6,11.776,5.908,2.21-.049,4.435-.442,5.893-2.252,1.119-1.39,2.169-3.744,1.767-5.547C439.009,172.024,433.424,170.934,429.9,171.059Zm8.115,9.288c-1.249,2.2-3.368,2.685-5.735,2.738-3.511.079-9.545.309-10.608-3.987a5.582,5.582,0,0,1,2.178-5.8c1.777-1.339,3.933-1.245,6.05-1.325,2.914-.1,5.525.337,7.749,2.406C439.456,176.063,439.153,178.34,438.016,180.347Z" transform="translate(-273.192 325.958)" fill="#333"/><path d="M425.2,179.573c.075-.585-.845-.579-.919,0a4.923,4.923,0,0,0,1,4.021c.388.448,1.036-.2.65-.65A4.13,4.13,0,0,1,425.2,179.573Z" transform="translate(-274.469 323.178)" fill="#333"/><path d="M425.455,177.348a.46.46,0,0,0,0-.919A.46.46,0,0,0,425.455,177.348Z" transform="translate(-274.741 324.109)" fill="#333"/></g></svg>
