<svg xmlns="http://www.w3.org/2000/svg" width="35.5" height="38.321" viewBox="0 0 35.5 38.321"><g transform="translate(-138.209 -143.504)"><path d="M154.585,156.433a.5.5,0,0,0,.726.558c1.1-.828,2.206-2.088,2.065-3.572s-4.033-4.733-1.341-5.781a.5.5,0,0,0-.131-.971c-1.868.006-3.79.644-3.905,2.782C151.845,152.3,155.856,153.313,154.585,156.433Zm-.665-4.962c-1.328-1.556-.964-2.88.3-3.476a2.471,2.471,0,0,0-.049,1.7,5.957,5.957,0,0,0,1.081,1.914c.959,1.263,1.257,2.415.563,3.494a4.1,4.1,0,0,0-.471-1.87A10.409,10.409,0,0,0,153.92,151.471Z" transform="translate(-4.055 -0.931)" fill="#333"/><path d="M163.322,155.261a.5.5,0,0,0,.726.558c1.307-.982,2.621-2.48,2.451-4.239-.182-1.869-5.03-5.752-1.549-7.107a.5.5,0,0,0-.131-.971c-2.223.008-4.466.738-4.628,3.267C159.969,150.229,164.888,151.419,163.322,155.261Zm-.98-5.967c-1.746-2.041-1.143-3.792.649-4.483a2.768,2.768,0,0,0-.164,2.23,7.087,7.087,0,0,0,1.283,2.274c1.271,1.679,1.6,3.208.5,4.63a4.924,4.924,0,0,0-.556-2.535A12.425,12.425,0,0,0,162.342,149.294Z" transform="translate(-6.464)" fill="#333"/><path d="M172.112,166.428a3.219,3.219,0,0,0-3.461-.343c-.008-1.46-.486-2.576-1.776-2.883a.529.529,0,0,0-.066,0,.484.484,0,0,0-.065-.016c-8-.265-16.3-.663-24.28.028-2.686.232-2.43,1.873-2.233,4.283a21.689,21.689,0,0,0,1.786,7.407,12.716,12.716,0,0,0,2.652,3.768c-2.339.232-6.514,1.067-6.459,3.379.042,1.749,3.172,2.361,4.429,2.557.5.078,1.01.138,1.519.191,1.422,3.239,6.768,2.638,9.615,2.679a36.368,36.368,0,0,0,7.788-.383c1.517-.32,2.239-1.371,3.124-2.554,1.887-.21,4.885-.6,5.611-2.1,1.094-2.251-4.808-3.228-7.332-3.5q.359-.341.7-.713a.492.492,0,0,0,.176.029c3.913-.162,9.363-2.716,9.828-7.118C173.839,169.5,173.533,167.441,172.112,166.428ZM168,170.081a2.172,2.172,0,0,1,1.347-.232,1.069,1.069,0,0,1,.635,1.248,3.2,3.2,0,0,1-1.3,1.772,6.752,6.752,0,0,1-2.284,1.083,32.247,32.247,0,0,0,1.514-3.855A.515.515,0,0,0,168,170.081Zm-8.806,16.261c-1.5.11-3.008.155-4.514.152-2.205,0-7.734.527-9.343-1.595,2.483.179,5.011.142,7.469.188a76.138,76.138,0,0,0,10.447-.385A5.627,5.627,0,0,1,159.191,186.342Zm2.846-6.493a19.507,19.507,0,0,1,4.836.908c.514.161,1.756.4,2.082.809.718.9-2.109,1.538-2.71,1.674a55.018,55.018,0,0,1-12.984.867q-3.043-.05-6.085-.168c-1.978-.076-5.185.16-6.92-1.043-2.331-1.616,1.13-2.494,2.4-2.821a14.284,14.284,0,0,1,2.991-.489c.02,0,.033-.01.052-.012a13.712,13.712,0,0,0,7.342,2.75,12.535,12.535,0,0,0,8.882-2.5A.49.49,0,0,0,162.037,179.849Zm.119-1.44c-4.311,4.1-11.913,3.976-16.344.064a13.388,13.388,0,0,1-3.841-6.581,23.67,23.67,0,0,1-.752-4.4,7.88,7.88,0,0,1-.1-1.986c.445-1.683,2.142-1.334,3.329-1.363,7.4-.184,14.8-.219,22.2.024,2.055.567.056,6.288-.363,7.486A16.977,16.977,0,0,1,162.156,178.409Zm8.8-4.208a10.631,10.631,0,0,1-6.459,3.011c.289-.384.57-.782.83-1.2.15-.244.343-.589.558-1.006.012,0,.02.006.032,0a6.145,6.145,0,0,0,4.795-3.048,2.305,2.305,0,0,0-.134-2.4,2.08,2.08,0,0,0-2.341-.6,14.884,14.884,0,0,0,.332-1.661c1.887-1.594,3.867.357,4.081,2.312A5.228,5.228,0,0,1,170.953,174.2Z" transform="translate(0 -5.684)" fill="#333"/><path d="M145.029,168.232c-.051-.63-1.039-.635-.988,0a15.365,15.365,0,0,0,2.324,7.04c.337.537,1.193.042.853-.5A14.278,14.278,0,0,1,145.029,168.232Z" transform="translate(-1.715 -7.134)" fill="#333"/><path d="M149.141,180.029a.494.494,0,0,0,0,.988A.494.494,0,0,0,149.141,180.029Z" transform="translate(-3.075 -10.744)" fill="#333"/></g></svg>
