<svg xmlns="http://www.w3.org/2000/svg" xmlns:xlink="http://www.w3.org/1999/xlink" width="360" height="176"
    viewBox="0 0 360 176">
    <defs>
        <clipPath id="a">
            <rect width="360" height="176" fill="#fff" stroke="#707070" stroke-width="1" />
        </clipPath>
    </defs>
    <g clip-path="url(#a)">
        <g transform="matrix(-0.719, -0.695, 0.695, -0.719, 323.484, 563.676)">
            <path
                d="M455.871,375.479a54.609,54.609,0,0,1,20.6-4.1l-7.194-15.862c8.227-2.65,11.716-14.431,6.259-21.134a11.972,11.972,0,0,1-2.371-3.323c-1.982-5.638,8.451-11.111,5.094-16.055-.942-1.386-2.689-1.968-3.908-3.118-5.8-5.462,3.921-17.515-2.336-22.443-2.545-2.005-6.674-1.469-8.712-3.987-1.293-1.6-1.248-3.86-1.917-5.8-1.958-5.685-9.064-7.227-14.114-10.49-4.03-2.6-6.946-6.579-10.486-9.818a36.434,36.434,0,0,0-35.7-7.411c-5.852-1.251-12.35-2.819-18.251-1.823S371.1,254.9,369.508,260.668c-.621,2.247-.613,4.748-1.929,6.672-2,2.926-6.132,3.3-9.1,5.235a9.873,9.873,0,0,0-3.565,11.788c.558,1.3,1.426,2.625,1.1,4-.352,1.5-1.932,2.294-3.248,3.1a16.556,16.556,0,0,0-7.373,17.194c.4,1.837,1.124,3.632,1.124,5.512,0,3.862-2.953,6.979-4.807,10.366s-2.026,8.673,1.563,10.1c-5.605,2.329-8.068,10.123-4.82,15.25,2.906,4.587,9.418,7.191,9.723,12.612.116,2.074-.779,4.216-.116,6.184,1.1,3.256,5.4,3.788,8.839,3.742"
                stroke="#000" stroke-miterlimit="10" stroke-width="1" />
            <path
                d="M417.224,355.6a26.145,26.145,0,0,1,2.917-8.258l-25.831-.921a22.518,22.518,0,0,1,2.267,8.84,10.215,10.215,0,0,1-3.607,8.149,14.445,14.445,0,0,0,27.058.156C418.746,361.929,416.839,358.977,417.224,355.6Z"
                fill="#fff" stroke="#000" stroke-miterlimit="10" stroke-width="1" />
            <path
                d="M368.026,300.314a40.223,40.223,0,0,0,55.621,45.434c6.709-2.984,12.463-7.736,17.921-12.648,2.248-2.024,4.532-4.183,5.65-6.994,1.08-2.716.952-5.755.569-8.653a42.493,42.493,0,0,0-7.088-19.014c-5.018-7.089-12.345-11.9-19.044-17.235-5.446-4.331-11.884-15.665-19.239-15.556-7.779.114-14.425,10.1-20.095,14.429C375.108,285.584,370.043,291.188,368.026,300.314Z"
                fill="#fff" stroke="#000" stroke-miterlimit="10" stroke-width="1" />
            <path d="M377.48,308.974a16.6,16.6,0,0,1,17.513-2.821" fill="none" stroke="#000" stroke-linecap="round"
                stroke-miterlimit="10" stroke-width="1" />
            <path d="M376.438,299.552a20.31,20.31,0,0,1,18.119-4.393" fill="none" stroke="#000" stroke-linecap="round"
                stroke-miterlimit="10" stroke-width="1" />
            <path d="M415.243,306.68a13.107,13.107,0,0,1,12.981-1.746" fill="none" stroke="#000" stroke-linecap="round"
                stroke-miterlimit="10" stroke-width="1" />
            <path d="M411.157,296.768c5.629-2.03,12.517-3.868,17.093-.011" fill="none" stroke="#000"
                stroke-linecap="round" stroke-miterlimit="10" stroke-width="1" />
            <path d="M399.716,320.788a4.043,4.043,0,0,1,5.806-.471" fill="none" stroke="#000" stroke-linecap="round"
                stroke-miterlimit="10" stroke-width="1" />
            <path d="M390.057,327.357a22.315,22.315,0,0,0,30.29-3.055" fill="none" stroke="#000" stroke-linecap="round"
                stroke-miterlimit="10" stroke-width="1" />
            <path
                d="M289.048,265.122a7.715,7.715,0,0,1,.413-3.132,3.021,3.021,0,0,1,2.328-1.94,1.077,1.077,0,0,1,.818.2,1.354,1.354,0,0,1,.345.7,22.454,22.454,0,0,1,.689,6.576l-.223-6.623a4.829,4.829,0,0,1,.375-2.542,1.667,1.667,0,0,1,2.188-.782A2.3,2.3,0,0,1,296.8,259a22,22,0,0,1,.725,7.485q-.144-4.967-.118-9.936c.728-.861,2.238-.511,2.919.386a5.718,5.718,0,0,1,.826,3.224l.339,6.441a35.79,35.79,0,0,1,.04-6.928,3.952,3.952,0,0,1,.765-2.1,1.589,1.589,0,0,1,2.028-.4c1.191.38,1.431,1.937,1.425,3.188a72.476,72.476,0,0,1-.778,10.247c.424.693,1.561.267,1.978-.43s.53-1.587,1.119-2.146a2.14,2.14,0,0,1,2.668-.017,3.752,3.752,0,0,1,1.322,2.5c.466,3.13-1.489,6.053-3.347,8.615a23.4,23.4,0,0,1-4.262,4.857,7.9,7.9,0,0,1-6.023,1.838C290.71,284.515,289.174,271.248,289.048,265.122Z"
                fill="none" stroke="#000" stroke-miterlimit="10" stroke-width="1" />
            <path d="M293.231,270.027a10.846,10.846,0,0,1,8.1-.416" fill="none" stroke="#000" stroke-linecap="round"
                stroke-miterlimit="10" stroke-width="1" />
            <path
                d="M478.073,418.938a117.068,117.068,0,0,1,16.18,28.921l19.437-9.688a268.489,268.489,0,0,0-20.483-34c-5.479-7.737-9.542-12.96-16.043-18.96a103.261,103.261,0,0,0-29.9-19.133,16.679,16.679,0,0,0-5.026-1.786c-.468-.123-.738-.166-.76-.124,0,.005.013.012.017.018a16.871,16.871,0,0,0-2.26-.169H373.466a16.757,16.757,0,0,0-13.811,7.269c-4.106,3.459-9.836,7.82-17.392,8.841-9.3,1.257-19.67-2.388-25.121-9.109-7.7-9.5-8.032-22.815-7.762-35.041q.585-26.492,2.659-52.922c-4.387-.607-9.125-1.086-14.181-1.353-3.6-.19-7.043-.256-10.314-.228a366.865,366.865,0,0,1,.482,37.383c-.358,9.17-1.066,18.045.281,30.946.885,8.475,1.336,12.789,3.354,18.4,1.6,4.443,6.457,17.961,20.136,26.256,10.7,6.489,20.538,7.417,39.617,4.3a24.844,24.844,0,0,0,3.1-.676c-3.3,27.144-7.808,61.831-10.178,69.539-2.563,8.333-9.3,24.959-15.145,38.921a16.773,16.773,0,0,0,15.479,23.244H468.936a16.771,16.771,0,0,0,15.176-23.925c-5.962-12.629-12.591-27.664-15.778-38.289C464.649,455.288,460.722,424,457.994,399,465.245,402.345,470.826,409.586,478.073,418.938Z"
                fill="#ffcb00" stroke="#000" stroke-miterlimit="10" stroke-width="1" />
        </g>
    </g>
</svg>
