<svg xmlns="http://www.w3.org/2000/svg" width="75.295" height="114.922" viewBox="0 0 75.295 114.922"><g transform="translate(-489.334 -101.705)"><rect width="74.295" height="113.922" rx="11.478" transform="translate(489.834 102.205)" stroke="#000" stroke-miterlimit="10" stroke-width="1"/><rect width="56.999" height="83.239" transform="translate(498.482 114.993)" fill="#fff" stroke="#000" stroke-miterlimit="10" stroke-width="1"/><circle cx="4.008" cy="4.008" r="4.008" transform="translate(522.974 203.705)" fill="#fff" stroke="#000" stroke-miterlimit="10" stroke-width="1"/><path d="M532.682,185.7v7.646a1.236,1.236,0,0,0,2.232.732l4.473-6.086Z" transform="translate(-11.119 -21.668)" fill="#ffcb00"/><path d="M552.246,146.726a1.235,1.235,0,0,0-1.288-.089l-37.091,19.369a1.237,1.237,0,0,0,.172,2.267L524.35,171.8l21.959-18.776-16.992,20.472L546.6,179.4a1.267,1.267,0,0,0,.4.066,1.237,1.237,0,0,0,1.223-1.053l4.533-30.5A1.239,1.239,0,0,0,552.246,146.726Z" transform="translate(-6.065 -11.494)" fill="#ffcb00"/></g></svg>
