<svg xmlns="http://www.w3.org/2000/svg" width="19.699" height="19.699" viewBox="0 0 19.699 19.699">
    <path id="Path_146" data-name="Path 146"
        d="M9.85,0A9.85,9.85,0,1,0,19.7,9.85,9.879,9.879,0,0,0,9.85,0Zm-.1,16.35a1.379,1.379,0,1,1,1.379-1.379A1.347,1.347,0,0,1,9.751,16.35ZM12.41,8.668,11.327,9.85a1.2,1.2,0,0,0-.394.886,1.2,1.2,0,0,1-1.182,1.182,1.138,1.138,0,0,1-1.182-1.182,2.2,2.2,0,0,1,.788-1.773l.886-1.083A2.236,2.236,0,0,0,10.933,6.5,1.033,1.033,0,0,0,9.85,5.417,1.159,1.159,0,0,0,8.668,6.3a1.286,1.286,0,0,1-1.182.689A1.033,1.033,0,0,1,6.4,5.91a1.071,1.071,0,0,1,.1-.492A3.283,3.283,0,0,1,9.85,3.349,3.191,3.191,0,0,1,13.3,6.5,3.231,3.231,0,0,1,12.41,8.668Z"
        fill="#fff" />
</svg>
